<?xml version="1.0" encoding="utf-8"?>
<!-- Generator: Adobe Illustrator 22.0.1, SVG Export Plug-In . SVG Version: 6.00 Build 0)  -->
<svg version="1.1" xmlns="http://www.w3.org/2000/svg" xmlns:xlink="http://www.w3.org/1999/xlink" x="0px" y="0px"
	 viewBox="0 0 512 336.1" style="enable-background:new 0 0 512 336.1;" xml:space="preserve">
<style type="text/css">
	.st0{fill:#464655;}
	.st1{fill:#FFE15A;}
	.st2{fill:#FF4B55;}
	.st3{display:none;}
	.st4{display:inline;}
	.st5{fill:#637CF9;}
	.st6{fill:#FFFFFF;}
	.st7{display:inline;fill:#F5F5F5;}
	.st8{display:inline;fill:#41479B;}
	.st9{fill:#F5F5F5;}
	.st10{fill:url(#SVGID_1_);}
	.st11{fill:url(#SVGID_2_);}
</style>
<g id="Layer_1">
	<path class="st0" d="M473.7,0.8H38.3C17.2,0.8,0,17.9,0,39.1v73.5h512V39.1C512,17.9,494.8,0.8,473.7,0.8z"/>
	<path class="st1" d="M0,297.9c0,21.2,17.2,38.3,38.3,38.3h435.3c21.2,0,38.3-17.2,38.3-38.3v-73.5H0V297.9z"/>
	<rect y="112.6" class="st2" width="512" height="111.8"/>
	<g class="st3">
		
			
		<g class="st4">
			<path class="st5" d="M473.6,336.6H226.4c-21.4,0-38.9-17.5-38.9-38.9V177.5c0-21.4,17.5-38.9,38.9-38.9h247.2
				c21.4,0,38.9,17.5,38.9,38.9v120.2C512.5,319.1,495,336.6,473.6,336.6z"/>
		</g>
	</g>
	<g class="st3">
		
			
		
		<g class="st4">
			<g>
				<path class="st6" d="M299.9,198.9c-8.7,0-15.5,3.6-20.4,10.7c-4.9,7.1-7.3,17-7.3,29.5c0,26.1,9.9,39.2,29.8,39.2
					c6,0,11.8-0.8,17.4-2.5c5.6-1.7,11.3-3.7,17-6v31c-11.3,5-24.1,7.5-38.4,7.5c-20.5,0-36.2-5.9-47.1-17.8
					c-10.9-11.9-16.4-29-16.4-51.5c0-14,2.6-26.4,7.9-37c5.3-10.6,12.9-18.8,22.8-24.5c9.9-5.7,21.6-8.6,35-8.6
					c14.7,0,28.7,3.2,42,9.6l-11.2,28.9c-5-2.3-10-4.3-15-5.9C311.1,199.7,305.7,198.9,299.9,198.9z"/>
				<path class="st6" d="M423.2,198.9c-8.7,0-15.5,3.6-20.4,10.7c-4.9,7.1-7.3,17-7.3,29.5c0,26.1,9.9,39.2,29.8,39.2
					c6,0,11.8-0.8,17.4-2.5c5.6-1.7,11.3-3.7,17-6v31c-11.3,5-24.1,7.5-38.4,7.5c-20.5,0-36.2-5.9-47.1-17.8s-16.4-29-16.4-51.5
					c0-14,2.6-26.4,7.9-37c5.3-10.6,12.9-18.8,22.8-24.5c9.9-5.7,21.6-8.6,35-8.6c14.7,0,28.7,3.2,42,9.6l-11.2,28.9
					c-5-2.3-10-4.3-15-5.9C434.4,199.7,429,198.9,423.2,198.9z"/>
			</g>
		</g>
	</g>
</g>
<g id="Layer_3" class="st3">
	<path class="st7" d="M473.7,1H38.3C17.2,1,0,18.2,0,39.3v258.8c0,21.2,17.2,38.3,38.3,38.3h435.3c21.2,0,38.3-17.2,38.3-38.3V39.3
		C512,18.2,494.8,1,473.7,1z M256,266.5c-53.6,0-97.1-43.5-97.1-97.1c0-53.6,43.5-97.1,97.1-97.1c53.6,0,97.1,43.5,97.1,97.1
		C353.1,223,309.6,266.5,256,266.5z"/>
	
		<ellipse transform="matrix(0.7071 -0.7071 0.7071 0.7071 -44.7888 230.6295)" class="st7" cx="256" cy="169.4" rx="97.1" ry="97.1"/>
	<g>
		<path class="st2" d="M2.1,26.8h507.8C504.7,11.8,490.4,1,473.7,1H38.3C21.6,1,7.3,11.8,2.1,26.8z"/>
		<path class="st2" d="M512,104.2H328c6.9,7.6,12.6,16.3,16.8,25.8H512V104.2z"/>
		<path class="st2" d="M0,104.2V130h167.2c4.2-9.5,9.9-18.2,16.8-25.8H0z"/>
		<path class="st2" d="M184,104.2c-6.9,7.6-12.6,16.3-16.8,25.8h177.6c-4.2-9.5-9.9-18.2-16.8-25.8H184z"/>
		<path class="st2" d="M512,52.6H0v25.8h222c10.6-4,22-6.1,34-6.1s23.4,2.2,34,6.1h222V52.6z"/>
		<path class="st2" d="M222,78.4h68c-10.6-4-22-6.1-34-6.1S232.6,74.4,222,78.4z"/>
		<path class="st2" d="M159.8,155.8H0v17c0,4.9,4,8.8,8.8,8.8h150.8c-0.5-4-0.8-8.1-0.8-12.2C158.9,164.8,159.2,160.2,159.8,155.8z"
			/>
		<path class="st2" d="M512,155.8H352.2c0.6,4.4,0.9,9,0.9,13.6c0,4.1-0.3,8.2-0.8,12.2H512V155.8z"/>
		<path class="st2" d="M352.2,155.8H159.8c-0.6,4.4-0.9,9-0.9,13.6c0,4.1,0.3,8.2,0.8,12.2h192.7c0.5-4,0.8-8.1,0.8-12.2
			C353.1,164.8,352.8,160.2,352.2,155.8z"/>
		<path class="st2" d="M293.3,259c-11.5,4.8-24.1,7.4-37.3,7.4c-13.2,0-25.8-2.6-37.3-7.4H0v25.8h512V259H293.3z"/>
		<path class="st2" d="M293.3,259h-74.7c11.5,4.8,24.1,7.4,37.3,7.4C269.2,266.5,281.8,263.8,293.3,259z"/>
		<path class="st2" d="M509.9,310.6H2.1c5.2,15,19.5,25.8,36.2,25.8h435.3C490.4,336.4,504.7,325.7,509.9,310.6z"/>
		<path class="st2" d="M0,207.4v25.8h182.9c-6.7-7.6-12.2-16.3-16.2-25.8H0z"/>
		<path class="st2" d="M512,207.4H345.4c-4,9.5-9.5,18.2-16.2,25.8H512V207.4z"/>
		<path class="st2" d="M166.6,207.4c4,9.5,9.5,18.2,16.2,25.8h146.3c6.7-7.6,12.2-16.3,16.2-25.8H166.6z"/>
	</g>
	<path class="st8" d="M238.3,73.9V9.8c0-4.9-4-8.8-8.8-8.8H38.3C17.2,1,0,18.2,0,39.3v133.5c0,4.9,4,8.8,8.8,8.8h150.8
		c-0.5-4-0.8-8.1-0.8-12.2C158.9,121.8,193.1,82.2,238.3,73.9z"/>
	<path class="st8" d="M238.3,172.8V73.9c-45.2,8.3-79.4,47.9-79.4,95.5c0,4.1,0.3,8.2,0.8,12.2h69.9
		C234.4,181.6,238.3,177.7,238.3,172.8z"/>
	<g class="st4">
		<path class="st9" d="M24.8,21.3l2,5.9l6.2,0c0.8,0,1.1,1,0.5,1.5l-5,3.7l1.9,5.9c0.2,0.8-0.6,1.4-1.3,0.9l-5-3.6l-5,3.6
			c-0.7,0.5-1.5-0.2-1.3-0.9l1.9-5.9l-5-3.7c-0.6-0.5-0.3-1.5,0.5-1.5l6.2,0l2-5.9C23.5,20.5,24.5,20.5,24.8,21.3z"/>
		<path class="st9" d="M24.8,51.9l2,5.9l6.2,0c0.8,0,1.1,1,0.5,1.5l-5,3.7l1.9,5.9c0.2,0.8-0.6,1.4-1.3,0.9l-5-3.6l-5,3.6
			c-0.7,0.5-1.5-0.2-1.3-0.9l1.9-5.9l-5-3.7c-0.6-0.5-0.3-1.5,0.5-1.5l6.2,0l2-5.9C23.5,51.2,24.5,51.2,24.8,51.9z"/>
		<path class="st9" d="M24.8,82.6l2,5.9l6.2,0c0.8,0,1.1,1,0.5,1.5l-5,3.7l1.9,5.9c0.2,0.8-0.6,1.4-1.3,0.9l-5-3.6l-5,3.6
			c-0.7,0.5-1.5-0.2-1.3-0.9l1.9-5.9l-5-3.7c-0.6-0.5-0.3-1.5,0.5-1.5l6.2,0l2-5.9C23.5,81.8,24.5,81.8,24.8,82.6z"/>
		<path class="st9" d="M24.8,113.2l2,5.9l6.2,0c0.8,0,1.1,1,0.5,1.5l-5,3.7l1.9,5.9c0.2,0.8-0.6,1.4-1.3,0.9l-5-3.6l-5,3.6
			c-0.7,0.5-1.5-0.2-1.3-0.9l1.9-5.9l-5-3.7c-0.6-0.5-0.3-1.5,0.5-1.5l6.2,0l2-5.9C23.5,112.5,24.5,112.5,24.8,113.2z"/>
		<path class="st9" d="M24.8,143.9l2,5.9l6.2,0c0.8,0,1.1,1,0.5,1.5l-5,3.7l1.9,5.9c0.2,0.8-0.6,1.4-1.3,0.9l-5-3.6l-5,3.6
			c-0.7,0.5-1.5-0.2-1.3-0.9l1.9-5.9l-5-3.7c-0.6-0.5-0.3-1.5,0.5-1.5l6.2,0l2-5.9C23.5,143.1,24.5,143.1,24.8,143.9z"/>
		<path class="st9" d="M48.6,36.3l2,5.9l6.2,0c0.8,0,1.1,1,0.5,1.5l-5,3.7l1.9,5.9c0.2,0.8-0.6,1.4-1.3,0.9l-5-3.6l-5,3.6
			c-0.7,0.5-1.5-0.2-1.3-0.9l1.9-5.9l-5-3.7c-0.6-0.5-0.3-1.5,0.5-1.5l6.2,0l2-5.9C47.3,35.5,48.3,35.5,48.6,36.3z"/>
		<path class="st9" d="M48.6,66.9l2,5.9l6.2,0c0.8,0,1.1,1,0.5,1.5l-5,3.7l1.9,5.9c0.2,0.8-0.6,1.4-1.3,0.9l-5-3.6l-5,3.6
			c-0.7,0.5-1.5-0.2-1.3-0.9l1.9-5.9l-5-3.7c-0.6-0.5-0.3-1.5,0.5-1.5l6.2,0l2-5.9C47.3,66.2,48.3,66.2,48.6,66.9z"/>
		<path class="st9" d="M48.6,97.6l2,5.9l6.2,0c0.8,0,1.1,1,0.5,1.5l-5,3.7l1.9,5.9c0.2,0.8-0.6,1.4-1.3,0.9l-5-3.6l-5,3.6
			c-0.7,0.5-1.5-0.2-1.3-0.9l1.9-5.9l-5-3.7c-0.6-0.5-0.3-1.5,0.5-1.5l6.2,0l2-5.9C47.3,96.8,48.3,96.8,48.6,97.6z"/>
		<path class="st9" d="M48.6,128.2l2,5.9l6.2,0c0.8,0,1.1,1,0.5,1.5l-5,3.7l1.9,5.9c0.2,0.8-0.6,1.4-1.3,0.9l-5-3.6l-5,3.6
			c-0.7,0.5-1.5-0.2-1.3-0.9l1.9-5.9l-5-3.7c-0.6-0.5-0.3-1.5,0.5-1.5l6.2,0l2-5.9C47.3,127.5,48.3,127.5,48.6,128.2z"/>
		<path class="st9" d="M72.4,21.3l2,5.9l6.2,0c0.8,0,1.1,1,0.5,1.5l-5,3.7l1.9,5.9c0.2,0.8-0.6,1.4-1.3,0.9l-5-3.6l-5,3.6
			c-0.7,0.5-1.5-0.2-1.3-0.9l1.9-5.9l-5-3.7c-0.6-0.5-0.3-1.5,0.5-1.5l6.2,0l2-5.9C71,20.5,72.1,20.5,72.4,21.3z"/>
		<path class="st9" d="M72.4,51.9l2,5.9l6.2,0c0.8,0,1.1,1,0.5,1.5L76,63l1.9,5.9c0.2,0.8-0.6,1.4-1.3,0.9l-5-3.6l-5,3.6
			c-0.7,0.5-1.5-0.2-1.3-0.9l1.9-5.9l-5-3.7c-0.6-0.5-0.3-1.5,0.5-1.5l6.2,0l2-5.9C71,51.2,72.1,51.2,72.4,51.9z"/>
		<path class="st9" d="M72.4,82.6l2,5.9l6.2,0c0.8,0,1.1,1,0.5,1.5l-5,3.7l1.9,5.9c0.2,0.8-0.6,1.4-1.3,0.9l-5-3.6l-5,3.6
			c-0.7,0.5-1.5-0.2-1.3-0.9l1.9-5.9l-5-3.7c-0.6-0.5-0.3-1.5,0.5-1.5l6.2,0l2-5.9C71,81.8,72.1,81.8,72.4,82.6z"/>
		<path class="st9" d="M72.4,113.2l2,5.9l6.2,0c0.8,0,1.1,1,0.5,1.5l-5,3.7l1.9,5.9c0.2,0.8-0.6,1.4-1.3,0.9l-5-3.6l-5,3.6
			c-0.7,0.5-1.5-0.2-1.3-0.9l1.9-5.9l-5-3.7c-0.6-0.5-0.3-1.5,0.5-1.5l6.2,0l2-5.9C71,112.5,72.1,112.5,72.4,113.2z"/>
		<path class="st9" d="M72.4,143.9l2,5.9l6.2,0c0.8,0,1.1,1,0.5,1.5l-5,3.7l1.9,5.9c0.2,0.8-0.6,1.4-1.3,0.9l-5-3.6l-5,3.6
			c-0.7,0.5-1.5-0.2-1.3-0.9l1.9-5.9l-5-3.7c-0.6-0.5-0.3-1.5,0.5-1.5l6.2,0l2-5.9C71,143.1,72.1,143.1,72.4,143.9z"/>
		<path class="st9" d="M96.2,36.3l2,5.9l6.2,0c0.8,0,1.1,1,0.5,1.5l-5,3.7l1.9,5.9c0.2,0.8-0.6,1.4-1.3,0.9l-5-3.6l-5,3.6
			c-0.7,0.5-1.5-0.2-1.3-0.9l1.9-5.9l-5-3.7c-0.6-0.5-0.3-1.5,0.5-1.5l6.2,0l2-5.9C94.8,35.5,95.9,35.5,96.2,36.3z"/>
		<path class="st9" d="M96.2,66.9l2,5.9l6.2,0c0.8,0,1.1,1,0.5,1.5l-5,3.7l1.9,5.9c0.2,0.8-0.6,1.4-1.3,0.9l-5-3.6l-5,3.6
			c-0.7,0.5-1.5-0.2-1.3-0.9l1.9-5.9l-5-3.7c-0.6-0.5-0.3-1.5,0.5-1.5l6.2,0l2-5.9C94.8,66.2,95.9,66.2,96.2,66.9z"/>
		<path class="st9" d="M96.2,97.6l2,5.9l6.2,0c0.8,0,1.1,1,0.5,1.5l-5,3.7l1.9,5.9c0.2,0.8-0.6,1.4-1.3,0.9l-5-3.6l-5,3.6
			c-0.7,0.5-1.5-0.2-1.3-0.9l1.9-5.9l-5-3.7c-0.6-0.5-0.3-1.5,0.5-1.5l6.2,0l2-5.9C94.8,96.8,95.9,96.8,96.2,97.6z"/>
		<path class="st9" d="M96.2,128.2l2,5.9l6.2,0c0.8,0,1.1,1,0.5,1.5l-5,3.7l1.9,5.9c0.2,0.8-0.6,1.4-1.3,0.9l-5-3.6l-5,3.6
			c-0.7,0.5-1.5-0.2-1.3-0.9l1.9-5.9l-5-3.7c-0.6-0.5-0.3-1.5,0.5-1.5l6.2,0l2-5.9C94.8,127.5,95.9,127.5,96.2,128.2z"/>
		<path class="st9" d="M120,21.3l2,5.9l6.2,0c0.8,0,1.1,1,0.5,1.5l-5,3.7l1.9,5.9c0.2,0.8-0.6,1.4-1.3,0.9l-5-3.6l-5,3.6
			c-0.7,0.5-1.5-0.2-1.3-0.9l1.9-5.9l-5-3.7c-0.6-0.5-0.3-1.5,0.5-1.5l6.2,0l2-5.9C118.6,20.5,119.7,20.5,120,21.3z"/>
		<path class="st9" d="M120,51.9l2,5.9l6.2,0c0.8,0,1.1,1,0.5,1.5l-5,3.7l1.9,5.9c0.2,0.8-0.6,1.4-1.3,0.9l-5-3.6l-5,3.6
			c-0.7,0.5-1.5-0.2-1.3-0.9l1.9-5.9l-5-3.7c-0.6-0.5-0.3-1.5,0.5-1.5l6.2,0l2-5.9C118.6,51.2,119.7,51.2,120,51.9z"/>
		<path class="st9" d="M120,82.6l2,5.9l6.2,0c0.8,0,1.1,1,0.5,1.5l-5,3.7l1.9,5.9c0.2,0.8-0.6,1.4-1.3,0.9l-5-3.6l-5,3.6
			c-0.7,0.5-1.5-0.2-1.3-0.9l1.9-5.9l-5-3.7c-0.6-0.5-0.3-1.5,0.5-1.5l6.2,0l2-5.9C118.6,81.8,119.7,81.8,120,82.6z"/>
		<path class="st9" d="M120,113.2l2,5.9l6.2,0c0.8,0,1.1,1,0.5,1.5l-5,3.7l1.9,5.9c0.2,0.8-0.6,1.4-1.3,0.9l-5-3.6l-5,3.6
			c-0.7,0.5-1.5-0.2-1.3-0.9l1.9-5.9l-5-3.7c-0.6-0.5-0.3-1.5,0.5-1.5l6.2,0l2-5.9C118.6,112.5,119.7,112.5,120,113.2z"/>
		<path class="st9" d="M120,143.9l2,5.9l6.2,0c0.8,0,1.1,1,0.5,1.5l-5,3.7l1.9,5.9c0.2,0.8-0.6,1.4-1.3,0.9l-5-3.6l-5,3.6
			c-0.7,0.5-1.5-0.2-1.3-0.9l1.9-5.9l-5-3.7c-0.6-0.5-0.3-1.5,0.5-1.5l6.2,0l2-5.9C118.6,143.1,119.7,143.1,120,143.9z"/>
		<path class="st9" d="M143.8,36.3l2,5.9l6.2,0c0.8,0,1.1,1,0.5,1.5l-5,3.7l1.9,5.9c0.2,0.8-0.6,1.4-1.3,0.9l-5-3.6l-5,3.6
			c-0.7,0.5-1.5-0.2-1.3-0.9l1.9-5.9l-5-3.7c-0.6-0.5-0.3-1.5,0.5-1.5l6.2,0l2-5.9C142.4,35.5,143.5,35.5,143.8,36.3z"/>
		<path class="st9" d="M143.8,66.9l2,5.9l6.2,0c0.8,0,1.1,1,0.5,1.5l-5,3.7l1.9,5.9c0.2,0.8-0.6,1.4-1.3,0.9l-5-3.6l-5,3.6
			c-0.7,0.5-1.5-0.2-1.3-0.9l1.9-5.9l-5-3.7c-0.6-0.5-0.3-1.5,0.5-1.5l6.2,0l2-5.9C142.4,66.2,143.5,66.2,143.8,66.9z"/>
		<path class="st9" d="M143.8,97.6l2,5.9l6.2,0c0.8,0,1.1,1,0.5,1.5l-5,3.7l1.9,5.9c0.2,0.8-0.6,1.4-1.3,0.9l-5-3.6l-5,3.6
			c-0.7,0.5-1.5-0.2-1.3-0.9l1.9-5.9l-5-3.7c-0.6-0.5-0.3-1.5,0.5-1.5l6.2,0l2-5.9C142.4,96.8,143.5,96.8,143.8,97.6z"/>
		<path class="st9" d="M143.8,128.2l2,5.9l6.2,0c0.8,0,1.1,1,0.5,1.5l-5,3.7l1.9,5.9c0.2,0.8-0.6,1.4-1.3,0.9l-5-3.6l-5,3.6
			c-0.7,0.5-1.5-0.2-1.3-0.9l1.9-5.9l-5-3.7c-0.6-0.5-0.3-1.5,0.5-1.5l6.2,0l2-5.9C142.4,127.5,143.5,127.5,143.8,128.2z"/>
		<path class="st9" d="M167.5,21.3l2,5.9l6.2,0c0.8,0,1.1,1,0.5,1.5l-5,3.7l1.9,5.9c0.2,0.8-0.6,1.4-1.3,0.9l-5-3.6l-5,3.6
			c-0.7,0.5-1.5-0.2-1.3-0.9l1.9-5.9l-5-3.7c-0.6-0.5-0.3-1.5,0.5-1.5l6.2,0l2-5.9C166.2,20.5,167.3,20.5,167.5,21.3z"/>
		<path class="st9" d="M167.5,51.9l2,5.9l6.2,0c0.8,0,1.1,1,0.5,1.5l-5,3.7l1.9,5.9c0.2,0.8-0.6,1.4-1.3,0.9l-5-3.6l-5,3.6
			c-0.7,0.5-1.5-0.2-1.3-0.9l1.9-5.9l-5-3.7c-0.6-0.5-0.3-1.5,0.5-1.5l6.2,0l2-5.9C166.2,51.2,167.3,51.2,167.5,51.9z"/>
		<path class="st9" d="M160.5,99.5c-0.2,0.8,0.6,1.4,1.3,0.9l5-3.6l5,3.6c0.7,0.5,1.5-0.2,1.3-0.9l-1.9-5.9l5-3.7
			c0.6-0.5,0.3-1.5-0.5-1.5l-6.2,0l-2-5.9c-0.3-0.8-1.3-0.8-1.6,0l-2,5.9l-6.2,0c-0.8,0-1.1,1-0.5,1.5l5,3.7L160.5,99.5z"/>
		<path class="st9" d="M169.5,119.1l-2-5.9c-0.3-0.8-1.3-0.8-1.6,0l-2,5.9l-6.2,0c-0.8,0-1.1,1-0.5,1.5l5,3.7l-1.9,5.9
			c-0.2,0.8,0.6,1.4,1.3,0.9l5-3.6l1.2,0.9c1.5-3.2,3.1-6.3,5-9.3L169.5,119.1z"/>
		<path class="st9" d="M173.1,130.2l-1.9-5.9l5-3.7c0.6-0.5,0.3-1.5-0.5-1.5l-2.8,0c-1.8,3-3.5,6.1-5,9.3l3.8,2.7
			C172.4,131.6,173.3,130.9,173.1,130.2z"/>
		<path class="st9" d="M157.8,149.8c-0.8,0-1.1,1-0.5,1.5l2.9,2.1c0.2-1.2,0.4-2.4,0.7-3.6L157.8,149.8z"/>
		<path class="st9" d="M160.5,160.8c-0.2,0.8,0.6,1.4,1.3,0.9l5-3.6l5,3.6c0.7,0.5,1.5-0.2,1.3-0.9l-1.9-5.9l5-3.7
			c0.6-0.5,0.3-1.5-0.5-1.5l-6.2,0l-2-5.9c-0.3-0.8-1.3-0.8-1.6,0l-2,5.9l-3.1,0c-0.2,1.2-0.5,2.4-0.7,3.6l2.1,1.6L160.5,160.8z"/>
		<path class="st9" d="M191.3,36.3l2,5.9l6.2,0c0.8,0,1.1,1,0.5,1.5l-5,3.7l1.9,5.9c0.2,0.8-0.6,1.4-1.3,0.9l-5-3.6l-5,3.6
			c-0.7,0.5-1.5-0.2-1.3-0.9l1.9-5.9l-5-3.7c-0.6-0.5-0.3-1.5,0.5-1.5l6.2,0l2-5.9C190,35.5,191.1,35.5,191.3,36.3z"/>
		<path class="st9" d="M186.1,78l-1.9,5.9c-0.2,0.8,0.6,1.4,1.3,0.9l5-3.6l5,3.6c0.7,0.5,1.5-0.2,1.3-0.9L195,78l5-3.7
			c0.6-0.5,0.3-1.5-0.5-1.5l-6.2,0l-2-5.9c-0.3-0.8-1.3-0.8-1.6,0l-2,5.9l-6.2,0c-0.8,0-1.1,1-0.5,1.5L186.1,78z"/>
		<path class="st9" d="M181.6,103.5c-0.8,0-1.1,1-0.5,1.5l1.3,1c0.7-0.8,1.5-1.7,2.2-2.5L181.6,103.5z"/>
		<path class="st9" d="M189.8,97.6l-0.4,1.2c0.6-0.5,1.1-1,1.7-1.5C190.6,96.9,190,97,189.8,97.6z"/>
		<path class="st9" d="M184.3,114.6c-0.2,0.8,0.6,1.4,1.3,0.9l5-3.6l5,3.6c0.7,0.5,1.5-0.2,1.3-0.9l-1.9-5.9l5-3.7
			c0.6-0.5,0.3-1.5-0.5-1.5l-6.2,0l-2-5.9c-0.1-0.2-0.2-0.3-0.3-0.4c-0.6,0.5-1.1,1-1.7,1.5l-1.6,4.7l-3.1,0
			c-0.8,0.8-1.5,1.7-2.2,2.5l3.7,2.7L184.3,114.6z"/>
		<path class="st9" d="M199.5,134.2l-6.2,0l-2-5.9c-0.3-0.8-1.3-0.8-1.6,0l-2,5.9l-6.2,0c-0.8,0-1.1,1-0.5,1.5l5,3.7l-1.9,5.9
			c-0.2,0.8,0.6,1.4,1.3,0.9l5-3.6l5,3.6c0.7,0.5,1.5-0.2,1.3-0.9l-1.9-5.9l5-3.7C200.6,135.2,200.3,134.2,199.5,134.2z"/>
		<path class="st9" d="M215.1,21.3l2,5.9l6.2,0c0.8,0,1.1,1,0.5,1.5l-5,3.7l1.9,5.9c0.2,0.8-0.6,1.4-1.3,0.9l-5-3.6l-5,3.6
			c-0.7,0.5-1.5-0.2-1.3-0.9l1.9-5.9l-5-3.7c-0.6-0.5-0.3-1.5,0.5-1.5l6.2,0l2-5.9C213.8,20.5,214.9,20.5,215.1,21.3z"/>
		<path class="st9" d="M215.1,51.9l2,5.9l6.2,0c0.8,0,1.1,1,0.5,1.5l-5,3.7l1.9,5.9c0.2,0.8-0.6,1.4-1.3,0.9l-5-3.6l-5,3.6
			c-0.7,0.5-1.5-0.2-1.3-0.9l1.9-5.9l-5-3.7c-0.6-0.5-0.3-1.5,0.5-1.5l6.2,0l2-5.9C213.8,51.2,214.9,51.2,215.1,51.9z"/>
		<path class="st9" d="M223.3,88.5l-6.2,0l-2-5.9c-0.3-0.8-1.3-0.8-1.6,0l-2,5.9l-6.2,0c-0.8,0-1.1,1-0.5,1.5l5,3.7l-1.9,5.9
			c-0.2,0.8,0.6,1.4,1.3,0.9l5-3.6l5,3.6c0.7,0.5,1.5-0.2,1.3-0.9l-1.9-5.9l5-3.7C224.4,89.5,224.1,88.5,223.3,88.5z"/>
		<path class="st9" d="M223.3,119.1l-6.2,0l-2-5.9c-0.3-0.8-1.3-0.8-1.6,0l-2,5.9l-6.2,0c-0.8,0-1.1,1-0.5,1.5l5,3.7l-1.9,5.9
			c-0.2,0.8,0.6,1.4,1.3,0.9l5-3.6l5,3.6c0.7,0.5,1.5-0.2,1.3-0.9l-1.9-5.9l5-3.7C224.4,120.2,224.1,119.1,223.3,119.1z"/>
		<path class="st9" d="M223.3,149.8l-6.2,0l-2-5.9c-0.3-0.8-1.3-0.8-1.6,0l-2,5.9l-6.2,0c-0.8,0-1.1,1-0.5,1.5l5,3.7l-1.9,5.9
			c-0.2,0.8,0.6,1.4,1.3,0.9l5-3.6l5,3.6c0.7,0.5,1.5-0.2,1.3-0.9l-1.9-5.9l5-3.7C224.4,150.8,224.1,149.8,223.3,149.8z"/>
	</g>
</g>
<g id="Layer_2">
	<defs>
		<clipPath id="roundedFlagClip">
			<path d="M473.7,1H38.3C17.2,1,0,18.2,0,39.3v258.8c0,21.2,17.2,38.3,38.3,38.3h435.3c21.2,0,38.3-17.2,38.3-38.3V39.3 C512,18.2,494.8,1,473.7,1z"/>
		</clipPath>
		<linearGradient id="usFadeGradient" gradientUnits="userSpaceOnUse" x1="55.3684" y1="-31.9128" x2="456.6317" y2="369.3505">
			<stop offset="0.4500" stop-color="#FFFFFF" stop-opacity="1"/>
			<stop offset="0.7200" stop-color="#FFFFFF" stop-opacity="0"/>
		</linearGradient>
		<mask id="usFadeMask">
			<rect x="0" y="0" width="512" height="336.1" fill="url(#usFadeGradient)"/>
		</mask>
		<polygon id="usStar" points="0.000,-5.000 1.234,-1.699 4.755,-1.545 1.997,0.649 2.939,4.045 0.000,2.100 -2.939,4.045 -1.997,0.649 -4.755,-1.545 -1.234,-1.699" fill="#F5F5F5"/>
	</defs>
	<g clip-path="url(#roundedFlagClip)" mask="url(#usFadeMask)">
		<rect x="0" y="0" width="512" height="336.1" fill="#F5F5F5"/>
		<rect x="0" y="0.000" width="512" height="25.854" fill="#FF4B55"/>
		<rect x="0" y="51.708" width="512" height="25.854" fill="#FF4B55"/>
		<rect x="0" y="103.415" width="512" height="25.854" fill="#FF4B55"/>
		<rect x="0" y="155.123" width="512" height="25.854" fill="#FF4B55"/>
		<rect x="0" y="206.831" width="512" height="25.854" fill="#FF4B55"/>
		<rect x="0" y="258.538" width="512" height="25.854" fill="#FF4B55"/>
		<rect x="0" y="310.246" width="512" height="25.854" fill="#FF4B55"/>
		<rect x="0" y="0" width="238.3" height="180.977" fill="#41479B"/>
		<use href="#usStar" x="24.0" y="20.0"/>
		<use href="#usStar" x="62.0" y="20.0"/>
		<use href="#usStar" x="100.0" y="20.0"/>
		<use href="#usStar" x="138.0" y="20.0"/>
		<use href="#usStar" x="176.0" y="20.0"/>
		<use href="#usStar" x="214.0" y="20.0"/>
		<use href="#usStar" x="43.0" y="38.0"/>
		<use href="#usStar" x="81.0" y="38.0"/>
		<use href="#usStar" x="119.0" y="38.0"/>
		<use href="#usStar" x="157.0" y="38.0"/>
		<use href="#usStar" x="195.0" y="38.0"/>
		<use href="#usStar" x="24.0" y="56.0"/>
		<use href="#usStar" x="62.0" y="56.0"/>
		<use href="#usStar" x="100.0" y="56.0"/>
		<use href="#usStar" x="138.0" y="56.0"/>
		<use href="#usStar" x="176.0" y="56.0"/>
		<use href="#usStar" x="214.0" y="56.0"/>
		<use href="#usStar" x="43.0" y="74.0"/>
		<use href="#usStar" x="81.0" y="74.0"/>
		<use href="#usStar" x="119.0" y="74.0"/>
		<use href="#usStar" x="157.0" y="74.0"/>
		<use href="#usStar" x="195.0" y="74.0"/>
		<use href="#usStar" x="24.0" y="92.0"/>
		<use href="#usStar" x="62.0" y="92.0"/>
		<use href="#usStar" x="100.0" y="92.0"/>
		<use href="#usStar" x="138.0" y="92.0"/>
		<use href="#usStar" x="176.0" y="92.0"/>
		<use href="#usStar" x="214.0" y="92.0"/>
		<use href="#usStar" x="43.0" y="110.0"/>
		<use href="#usStar" x="81.0" y="110.0"/>
		<use href="#usStar" x="119.0" y="110.0"/>
		<use href="#usStar" x="157.0" y="110.0"/>
		<use href="#usStar" x="195.0" y="110.0"/>
		<use href="#usStar" x="24.0" y="128.0"/>
		<use href="#usStar" x="62.0" y="128.0"/>
		<use href="#usStar" x="100.0" y="128.0"/>
		<use href="#usStar" x="138.0" y="128.0"/>
		<use href="#usStar" x="176.0" y="128.0"/>
		<use href="#usStar" x="214.0" y="128.0"/>
		<use href="#usStar" x="43.0" y="146.0"/>
		<use href="#usStar" x="81.0" y="146.0"/>
		<use href="#usStar" x="119.0" y="146.0"/>
		<use href="#usStar" x="157.0" y="146.0"/>
		<use href="#usStar" x="195.0" y="146.0"/>
		<use href="#usStar" x="24.0" y="164.0"/>
		<use href="#usStar" x="62.0" y="164.0"/>
		<use href="#usStar" x="100.0" y="164.0"/>
		<use href="#usStar" x="138.0" y="164.0"/>
		<use href="#usStar" x="176.0" y="164.0"/>
		<use href="#usStar" x="214.0" y="164.0"/>
	</g>
</g></svg>
